<?xml version="1.0" standalone="no"?>
<!DOCTYPE svg PUBLIC "-//W3C//DTD SVG 20010904//EN"
 "http://www.w3.org/TR/2001/REC-SVG-20010904/DTD/svg10.dtd">
<svg version="1.0" xmlns="http://www.w3.org/2000/svg"
 width="1254.000000pt" height="1254.000000pt" viewBox="0 0 1254.000000 1254.000000"
 preserveAspectRatio="xMidYMid meet">

<g transform="translate(0.000000,1254.000000) scale(0.100000,-0.100000)"
fill="#000000" stroke="none">
<path d="M8633 8365 c0 -7 7 -11 14 -8 8 3 21 -3 29 -13 14 -18 15 -18 5 2
-12 24 -48 38 -48 19z"/>
<path d="M3350 8320 c-6 -11 -8 -20 -6 -20 3 0 10 9 16 20 6 11 8 20 6 20 -3
0 -10 -9 -16 -20z"/>
<path d="M9010 8207 c0 -2 15 -16 33 -33 l32 -29 -29 33 c-28 30 -36 37 -36
29z"/>
<path d="M3255 8169 c-4 -6 -5 -12 -2 -15 2 -3 7 2 10 11 7 17 1 20 -8 4z"/>
<path d="M8885 8089 c11 -13 21 -26 22 -28 2 -2 3 2 3 10 0 8 -10 20 -22 28
l-23 14 20 -24z"/>
<path d="M7661 8074 c0 -11 3 -14 6 -6 3 7 2 16 -1 19 -3 4 -6 -2 -5 -13z"/>
<path d="M8924 8066 c0 -13 4 -22 9 -19 10 6 9 31 -2 37 -5 3 -8 -5 -7 -18z"/>
<path d="M9263 8073 c9 -2 17 -10 17 -18 0 -27 64 -36 85 -12 6 7 9 11 7 10
-2 -1 -19 5 -37 13 -19 8 -47 13 -62 13 -17 -1 -21 -3 -10 -6z"/>
<path d="M3168 8008 c-37 -74 -39 -78 -28 -78 5 0 10 5 10 11 0 21 32 79 41
73 5 -3 6 2 3 10 -8 21 -7 21 -26 -16z"/>
<path d="M9457 8001 c6 -7 9 -20 6 -28 -4 -11 -8 -10 -19 4 -12 16 -12 13 -4
-17 12 -43 12 -43 1 -35 -5 3 -13 0 -17 -6 -3 -6 0 -15 7 -20 7 -4 10 -11 6
-15 -4 -4 -15 0 -25 9 -20 19 -37 23 -27 7 3 -5 -1 -10 -9 -10 -9 0 -16 -7
-16 -15 0 -8 -5 -15 -11 -15 -5 0 -7 4 -4 10 3 6 -1 7 -9 4 -21 -8 -21 -11 14
-46 34 -34 60 -88 60 -125 0 -26 -33 -98 -50 -108 -6 -4 -8 -11 -4 -16 3 -5 2
-9 -3 -8 -4 1 -25 -5 -45 -14 -75 -34 -150 -14 -199 52 -12 17 -26 28 -30 26
-4 -3 -5 4 -2 15 5 21 -11 28 -22 10 -4 -6 -11 -8 -16 -4 -14 8 -40 76 -33 83
4 3 9 0 11 -6 3 -7 11 -13 19 -13 9 0 13 4 9 9 -3 6 3 8 14 6 15 -3 21 3 26
26 4 16 11 31 16 34 5 4 14 15 20 27 8 15 8 19 0 14 -6 -4 -16 4 -22 18 -11
23 -16 24 -83 23 -64 -2 -71 0 -74 18 -2 15 -1 17 6 6 5 -7 12 -9 15 -5 3 5
-1 14 -8 21 -15 14 -17 11 -49 -45 -10 -18 -15 -36 -12 -39 3 -4 6 -1 6 7 0
10 3 10 14 1 11 -10 16 -9 24 4 8 15 12 15 30 4 22 -14 29 -43 13 -53 -5 -4
-7 4 -5 16 3 18 2 17 -6 -4 -7 -16 -24 -31 -42 -37 -39 -14 -51 -14 -43 -1 3
6 1 10 -6 10 -14 0 -7 -145 10 -202 17 -54 71 -128 124 -169 70 -52 137 -74
234 -73 74 0 89 4 157 37 52 26 85 51 108 80 45 58 60 86 52 99 -4 6 -3 8 4 4
12 -7 27 34 37 102 8 49 -3 142 -16 142 -4 0 -6 -7 -3 -15 4 -8 1 -15 -5 -15
-6 0 -11 6 -11 13 0 6 -9 -1 -20 -18 l-20 -30 5 35 c3 19 3 29 -1 23 -4 -9
-11 -10 -25 -3 -21 12 -25 30 -6 30 7 0 17 10 22 23 6 12 18 21 28 20 12 -1
17 4 13 14 -3 8 -6 17 -6 19 0 3 -4 2 -10 -1 -5 -3 -8 0 -5 7 5 13 -43 72 -80
98 -14 10 -17 10 -8 1z m47 -60 c9 -12 8 -12 -11 -1 -13 8 -19 20 -15 29 5 13
6 13 10 0 3 -7 10 -20 16 -28z m-436 -146 c-3 -3 -9 2 -12 12 -6 14 -5 15 5 6
7 -7 10 -15 7 -18z m0 -40 c-3 -3 -9 2 -12 12 -6 14 -5 15 5 6 7 -7 10 -15 7
-18z m452 -4 c0 -14 -6 -17 -24 -14 -18 4 -25 0 -30 -20 -8 -33 -46 -34 -46
-1 0 12 -3 30 -7 40 -5 13 -3 15 8 8 26 -16 62 -16 71 1 11 19 28 10 28 -14z
m-560 -56 c0 -8 -4 -15 -10 -15 -5 0 -7 7 -4 15 4 8 8 15 10 15 2 0 4 -7 4
-15z m631 -47 l-9 -33 -1 36 c-1 20 2 39 6 43 13 12 15 -10 4 -46z m-664 7 c6
-14 7 -27 3 -30 -5 -3 -11 1 -14 7 -4 7 -4 3 -2 -9 2 -14 0 -20 -9 -17 -13 6
-27 53 -18 66 9 16 28 7 40 -17z m637 9 c9 -24 7 -27 -9 -10 -17 17 -19 26 -6
26 5 0 12 -7 15 -16z m-153 -27 c-10 -9 -11 -8 -5 6 3 10 9 15 12 12 3 -3 0
-11 -7 -18z m-181 -117 c0 -5 -7 -7 -15 -4 -8 4 -15 8 -15 10 0 2 7 4 15 4 8
0 15 -4 15 -10z m53 3 c-7 -2 -19 -2 -25 0 -7 3 -2 5 12 5 14 0 19 -2 13 -5z
m251 -23 c-6 -6 -10 -3 -10 10 0 13 4 16 10 10 7 -7 7 -13 0 -20z m-462 -87
c-6 -3 -10 -9 -6 -14 8 -14 -12 -11 -24 4 -8 9 -4 12 16 13 15 1 21 -1 14 -3z
m121 -60 c-7 -2 -19 -2 -25 0 -7 3 -2 5 12 5 14 0 19 -2 13 -5z"/>
<path d="M3722 7954 c-8 -13 -11 -14 -12 -5 0 8 -3 11 -6 8 -4 -4 -1 -13 6
-22 13 -16 0 -21 -15 -6 -6 6 -10 0 -11 -17 -1 -15 1 -21 3 -14 3 6 9 9 15 6
5 -3 2 -14 -9 -26 -18 -21 -18 -21 4 -9 31 16 56 67 45 88 -8 14 -11 14 -20
-3z"/>
<path d="M9006 7915 c-3 -8 -1 -15 4 -15 6 0 10 7 10 15 0 8 -2 15 -4 15 -2 0
-6 -7 -10 -15z"/>
<path d="M3100 7868 c-44 -103 -50 -118 -45 -118 3 0 10 11 15 25 10 27 30 34
30 11 0 -25 15 -25 16 0 1 13 -2 21 -7 18 -5 -3 -9 7 -9 23 0 22 2 25 11 13 8
-12 9 -10 4 8 -4 14 0 32 9 47 9 14 12 25 7 25 -4 0 -19 -24 -31 -52z"/>
<path d="M5658 7913 c23 -2 61 -2 85 0 23 2 4 4 -43 4 -47 0 -66 -2 -42 -4z"/>
<path d="M5923 7913 c9 -2 25 -2 35 0 9 3 1 5 -18 5 -19 0 -27 -2 -17 -5z"/>
<path d="M6108 7913 c18 -2 45 -2 60 0 15 2 0 4 -33 4 -33 0 -45 -2 -27 -4z"/>
<path d="M6282 7914 c3 -2 31 -6 64 -9 37 -3 52 -1 39 4 -21 9 -111 13 -103 5z"/>
<path d="M7490 7854 c0 -32 4 -65 9 -72 5 -8 6 15 4 55 -6 86 -13 95 -13 17z"/>
<path d="M5510 7863 c-38 -34 -58 -101 -49 -163 l6 -45 3 45 c1 25 2 50 1 56
-2 17 19 68 25 61 3 -3 0 -15 -6 -27 -9 -16 -9 -25 -1 -33 6 -6 10 -34 10 -61
-1 -44 -2 -47 -9 -21 -7 29 -8 29 -9 -9 -1 -33 -3 -37 -16 -26 -13 11 -15 -30
-17 -346 l-3 -359 -415 -5 c-445 -5 -446 -5 -493 -58 -43 -48 -46 -78 -46
-482 0 -404 3 -434 46 -482 10 -11 36 -29 58 -39 37 -17 74 -19 448 -19 l407
0 0 -420 c0 -398 1 -423 20 -459 25 -50 71 -88 121 -101 26 -7 171 -10 418 -8
l379 3 44 30 c25 18 52 49 66 75 22 44 22 49 22 462 l0 418 407 0 c386 0 409
1 448 20 48 23 79 61 94 116 12 44 14 681 2 775 -9 70 -43 123 -97 149 -38 19
-62 20 -416 20 -206 0 -390 3 -407 6 l-31 7 -2 361 c-1 198 -3 344 -5 324 -3
-25 -9 -38 -19 -38 -8 0 -14 5 -14 10 0 6 4 10 10 10 21 0 -1 73 -31 101 -18
16 -33 28 -34 27 -1 -2 -7 -12 -13 -23 -11 -19 -11 -18 -12 8 0 25 -3 27 -40
27 -22 0 -40 5 -40 10 0 6 -15 27 -34 46 -26 27 -39 33 -51 27 -13 -8 -12 -11
10 -23 29 -15 31 -28 10 -56 -8 -10 -15 -36 -15 -56 0 -38 -1 -38 -40 -38 -33
0 -40 3 -40 20 0 17 -7 20 -40 20 -29 0 -40 4 -40 15 0 23 -11 18 -46 -20 -26
-29 -39 -35 -73 -35 -34 0 -41 3 -41 20 0 18 -7 20 -80 20 -73 0 -80 2 -80 20
0 16 7 20 36 20 34 0 70 22 61 38 -3 4 -26 6 -51 4 -37 -3 -46 -8 -46 -23 0
-22 -38 -26 -72 -8 -13 7 -23 8 -27 1 -3 -5 -33 -12 -65 -16 -33 -3 -63 -10
-66 -16 -5 -7 -9 -4 -12 8 -5 16 -2 19 11 15 13 -5 14 -3 4 8 -7 7 -13 23 -13
35 0 13 -5 26 -10 29 -12 7 5 44 29 62 9 7 13 13 9 13 -4 0 -21 -12 -38 -27z
m330 -213 c0 -5 -2 -10 -4 -10 -3 0 -8 5 -11 10 -3 6 -1 10 4 10 6 0 11 -4 11
-10z"/>
<path d="M9129 7873 c-13 -17 -13 -17 6 -3 11 8 22 16 24 17 2 2 0 3 -6 3 -6
0 -17 -8 -24 -17z"/>
<path d="M7520 7870 c0 -5 5 -10 11 -10 5 0 7 5 4 10 -3 6 -8 10 -11 10 -2 0
-4 -4 -4 -10z"/>
<path d="M9213 7873 c9 -2 25 -2 35 0 9 3 1 5 -18 5 -19 0 -27 -2 -17 -5z"/>
<path d="M9280 7870 c8 -5 20 -10 25 -10 6 0 3 5 -5 10 -8 5 -19 10 -25 10 -5
0 -3 -5 5 -10z"/>
<path d="M6444 7847 c-8 -16 -6 -29 5 -49 16 -29 41 -38 41 -15 0 8 4 7 11 -3
8 -11 9 -9 4 10 -4 14 -12 30 -17 35 -6 6 -7 3 -3 -10 6 -18 5 -18 -5 -2 -6 9
-9 21 -6 26 3 5 0 13 -7 19 -9 8 -15 5 -23 -11z m26 -1 c0 -2 -8 -10 -17 -17
-16 -13 -17 -12 -4 4 13 16 21 21 21 13z"/>
<path d="M3586 7846 c3 -8 0 -21 -7 -29 -11 -12 -16 -11 -33 5 -17 15 -21 16
-28 4 -5 -8 -7 -29 -6 -48 l3 -32 -171 -1 -171 0 14 22 c14 21 13 23 -12 29
-34 8 -37 4 -23 -33 9 -25 9 -35 -1 -47 -8 -9 -18 -16 -24 -16 -6 0 -21 -10
-34 -22 -20 -18 -26 -20 -33 -8 -7 12 -11 12 -26 -1 -16 -13 -16 -12 0 19 9
18 16 38 14 44 -3 7 -14 -14 -27 -45 -13 -31 -20 -61 -15 -68 5 -8 3 -9 -6 -4
-10 6 -12 3 -8 -13 4 -12 2 -20 -2 -17 -9 6 -78 -205 -114 -350 -137 -556
-136 -1037 4 -1580 68 -262 144 -462 275 -720 102 -202 183 -337 298 -491 l78
-106 -15 -46 c-8 -26 -25 -85 -36 -132 -21 -81 -49 -182 -196 -705 -105 -370
-164 -592 -164 -615 0 -59 60 -110 128 -110 25 0 159 46 377 129 28 11 151 56
275 101 124 45 326 119 450 165 124 45 274 100 333 122 l109 39 121 -49 c840
-337 1666 -344 2502 -22 153 59 476 217 504 246 57 59 77 167 47 252 -32 90
-114 166 -211 198 l-50 16 -3 501 -2 500 43 25 c50 30 87 89 96 156 6 49 18
61 446 450 36 33 44 36 86 33 62 -5 127 24 165 73 22 30 29 50 32 100 5 68 -8
103 -52 144 l-26 24 0 488 c0 345 3 490 11 495 18 11 59 107 59 139 0 43 -32
107 -69 138 -37 31 -101 51 -139 43 -29 -6 -34 -2 -303 261 -63 62 -118 110
-122 107 -4 -4 -13 -1 -21 5 -8 7 -20 10 -27 6 -8 -5 -8 -1 1 15 9 18 8 25 -6
41 -19 21 -39 20 -39 -2 0 -8 -17 -22 -38 -32 -34 -16 -37 -20 -25 -34 11 -13
11 -17 0 -21 -10 -3 -8 -8 5 -18 17 -13 17 -14 1 -8 -24 8 -23 -8 2 -24 11 -7
20 -18 20 -24 0 -7 -12 1 -28 18 -21 23 -27 39 -26 67 1 20 -2 37 -8 37 -5 0
-8 -12 -6 -27 2 -15 -2 -28 -10 -31 -7 -2 -11 1 -10 8 2 9 -17 27 -40 36 -4 2
-11 44 -8 44 2 0 10 -8 17 -17 12 -14 12 -16 0 -8 -9 5 -12 4 -7 -3 4 -6 14
-8 23 -5 11 4 13 8 5 11 -22 7 -13 22 14 22 15 0 23 4 19 11 -4 6 -13 8 -21 5
-8 -3 -14 0 -14 7 0 16 15 38 26 40 5 1 9 10 8 20 -1 16 1 16 22 2 22 -14 23
-14 17 2 -6 16 -4 16 18 -2 13 -10 -1 6 -31 38 -52 55 -78 76 -49 40 12 -15
12 -16 -2 -11 -13 5 -16 2 -12 -13 3 -11 -1 -21 -11 -25 -9 -3 -16 -11 -16
-18 0 -16 -38 -38 -45 -26 -3 6 -1 10 6 10 7 0 9 3 6 6 -12 12 -57 -26 -54
-45 4 -27 28 -53 43 -47 8 3 13 1 11 -3 -4 -15 163 -172 175 -165 6 4 8 3 5
-3 -9 -14 260 -276 275 -267 6 4 8 3 5 -3 -3 -5 16 -32 43 -58 49 -48 50 -51
50 -109 0 -48 5 -67 26 -98 14 -20 39 -43 55 -50 l29 -13 0 -472 0 -472 -30
-21 c-39 -28 -70 -89 -70 -139 0 -34 -6 -46 -42 -79 -24 -22 -133 -121 -243
-221 -195 -178 -201 -182 -236 -177 -53 8 -129 -18 -166 -56 -17 -18 -38 -56
-47 -83 -14 -45 -15 -56 -2 -98 8 -27 19 -53 24 -60 14 -17 16 -153 14 -663
l-2 -442 -30 -12 c-17 -7 -48 -32 -69 -56 -44 -51 -115 -85 -306 -151 -381
-130 -743 -182 -1082 -154 -352 28 -627 100 -978 255 -115 50 -171 70 -200 69
-41 0 -55 -5 -445 -148 -362 -133 -512 -186 -517 -181 -3 2 9 53 26 113 16 59
53 194 80 298 28 105 72 244 98 310 74 193 70 212 -99 422 -221 275 -372 545
-490 878 -144 408 -190 849 -133 1285 39 296 155 662 285 902 34 63 40 85 24
85 -9 0 -12 -7 -8 -19 4 -14 1 -16 -12 -11 -14 5 -16 3 -11 -11 5 -11 3 -15
-5 -10 -8 5 -9 1 -5 -12 7 -18 7 -18 -8 0 -8 11 -15 25 -15 30 0 6 4 5 9 -2 7
-11 10 -10 15 3 9 24 8 27 -6 19 -7 -4 -8 -3 -4 5 4 6 12 9 17 6 5 -4 9 0 9 8
0 7 -11 19 -25 25 -33 15 -36 15 -29 -2z m4178 -85 c-3 -3 -15 6 -27 18 l-22
24 27 -19 c14 -10 24 -21 22 -23z m-4195 -31 c2 -11 -39 -9 -45 2 -5 7 -2 8 5
4 8 -5 14 0 18 15 6 22 7 22 14 3 4 -10 8 -21 8 -24z m4151 15 c0 -2 -9 -3
-19 -2 -11 0 -18 5 -15 9 4 6 34 0 34 -7z m-4108 -41 c-8 -14 -9 -13 -9 10 0
18 3 24 9 18 7 -7 7 -16 0 -28z m4242 -60 c3 -8 2 -12 -4 -9 -6 3 -10 10 -10
16 0 14 7 11 14 -7z m94 -58 c8 -4 10 -17 7 -29 -4 -15 -3 -18 3 -9 7 10 11
10 22 -3 11 -13 10 -15 -3 -10 -9 4 -24 -3 -37 -17 -12 -13 -20 -18 -19 -13 3
13 -12 67 -22 80 -9 12 30 13 49 1z m-4405 -21 c-3 -9 -8 -14 -10 -11 -3 3 -2
9 2 15 9 16 15 13 8 -4z m4553 -132 c48 -48 48 -62 1 -44 -17 7 -27 18 -27 31
0 14 -4 19 -12 14 -7 -4 -8 -3 -4 5 4 6 2 18 -4 26 -27 32 2 12 46 -32z m9
-63 c3 -5 1 -10 -4 -10 -6 0 -11 5 -11 10 0 6 2 10 4 10 3 0 8 -4 11 -10z
m164 -111 c-15 -9 -32 -2 -24 11 3 5 13 6 21 3 12 -4 13 -8 3 -14z"/>
<path d="M7920 7551 c0 -6 4 -13 10 -16 6 -3 7 1 4 9 -7 18 -14 21 -14 7z"/>
<path d="M8881 7804 c0 -11 3 -14 6 -6 3 7 2 16 -1 19 -3 4 -6 -2 -5 -13z"/>
<path d="M5607 7793 c-4 -3 -7 -12 -7 -20 0 -11 4 -11 19 -1 11 7 17 16 15 20
-6 10 -18 10 -27 1z"/>
<path d="M6080 7770 l0 -30 80 0 80 0 0 30 0 30 -80 0 -80 0 0 -30z"/>
<path d="M6403 7793 c-16 -6 -17 -33 -3 -33 11 0 26 28 19 34 -2 2 -10 1 -16
-1z"/>
<path d="M5560 7769 c0 -11 5 -17 10 -14 6 3 10 13 10 21 0 8 -4 14 -10 14 -5
0 -10 -9 -10 -21z"/>
<path d="M5885 7750 c-3 -5 3 -10 14 -10 12 0 21 5 21 10 0 6 -6 10 -14 10 -8
0 -18 -4 -21 -10z"/>
<path d="M3097 7743 c-4 -3 -7 -11 -7 -17 0 -6 5 -5 12 2 6 6 9 14 7 17 -3 3
-9 2 -12 -2z"/>
<path d="M7810 7716 c0 -2 7 -7 16 -10 8 -3 12 -2 9 4 -6 10 -25 14 -25 6z"/>
<path d="M7555 7700 c3 -5 11 -10 16 -10 6 0 7 5 4 10 -3 6 -11 10 -16 10 -6
0 -7 -4 -4 -10z"/>
<path d="M7895 7630 c3 -5 11 -10 16 -10 6 0 7 5 4 10 -3 6 -11 10 -16 10 -6
0 -7 -4 -4 -10z"/>
<path d="M9337 6810 c-207 -35 -346 -253 -293 -458 29 -113 99 -202 196 -247
l42 -20 -6 -75 c-9 -109 -46 -443 -51 -456 -2 -6 -19 -14 -37 -17 -59 -9 -131
-49 -183 -102 -132 -132 -151 -335 -45 -492 20 -29 28 -49 22 -57 -23 -29
-237 -293 -247 -304 -10 -11 -24 -10 -80 7 -78 24 -139 26 -213 7 -108 -29
-201 -108 -250 -214 -23 -50 -27 -70 -27 -157 0 -90 3 -106 29 -155 44 -87 90
-136 159 -169 207 -102 426 -33 522 164 24 49 30 75 33 150 4 80 1 99 -21 154
l-26 63 147 185 147 185 60 -7 c199 -20 373 107 415 302 14 63 -1 168 -32 229
-30 61 -99 138 -152 169 l-42 25 8 77 c5 43 15 141 24 218 8 77 18 165 21 196
6 56 6 57 47 69 180 54 303 247 267 422 -33 158 -133 263 -289 303 -61 16 -73
17 -145 5z m150 -230 c134 -81 75 -300 -82 -300 -102 0 -180 94 -161 195 8 38
57 102 90 115 39 16 119 11 153 -10z m-152 -1270 c80 -39 112 -157 63 -230
-49 -71 -151 -92 -221 -45 -102 70 -92 220 18 275 51 25 88 25 140 0z m-731
-934 c74 -31 111 -123 81 -201 -42 -112 -168 -139 -257 -56 -33 30 -41 45 -45
83 -7 60 1 89 34 129 47 56 119 73 187 45z"/>
</g>
</svg>
