<?xml version="1.0" encoding="UTF-8"?>
<svg version="1.0" xmlns="http://www.w3.org/2000/svg"
 width="1032" height="241" viewBox="119 502 1032 241"
 preserveAspectRatio="xMidYMid meet">
<defs>
  <linearGradient id="iconGrad" gradientUnits="userSpaceOnUse"
    x1="2500" y1="7440" x2="2500" y2="5190">
    <stop offset="0%" stop-color="#00c8b4"/>
    <stop offset="100%" stop-color="#1a40e0"/>
  </linearGradient>
</defs>
<g transform="translate(0.000000,1254.000000) scale(0.100000,-0.100000)">
  <g fill="url(#iconGrad)">
    <path d="M1984 7424 c-18 -14 -18 -15 4 -4 12 6 22 13 22 15 0 8 -5 6 -26 -11z"/>
    <path d="M1559 7293 c-17 -20 -18 -23 -3 -10 11 9 23 15 26 12 2 -3 5 2 5 10
0 19 1 20 -28 -12z"/>
    <path d="M1790 7294 c-14 -7 -25 -19 -25 -26 -1 -7 -7 -12 -14 -10 -7 1 -9 -2
-6 -9 5 -7 19 1 41 22 19 18 34 34 34 36 0 4 0 4 -30 -13z"/>
    <path d="M1713 7216 c1 -6 -4 -10 -10 -8 -7 1 -13 -3 -13 -9 0 -6 -9 -9 -20
-6 -11 3 -22 2 -25 -3 -3 -4 5 -10 16 -13 13 -4 18 -10 14 -17 -6 -9 -10 -9
-16 1 -8 12 -11 11 -19 -1 -5 -8 -10 -19 -10 -25 0 -5 4 -3 10 5 5 8 12 11 15
8 4 -4 0 -17 -9 -30 -9 -12 -16 -19 -16 -14 0 5 -8 2 -17 -7 -19 -16 -78 -13
-67 4 3 5 1 9 -5 9 -5 0 -12 -8 -15 -17 -6 -18 -48 -43 -71 -43 -7 0 -16 10
-22 23 -10 21 -11 20 -30 -18 -39 -77 -92 -231 -109 -320 -22 -110 -24 -328
-5 -435 26 -147 116 -370 192 -475 l30 -41 -80 -279 c-86 -299 -88 -313 -29
-301 27 5 270 90 460 161 l90 34 46 -21 c285 -124 583 -147 869 -67 124 35
287 109 302 137 27 51 0 107 -70 142 l-39 20 0 168 0 168 30 26 c21 19 30 35
30 58 0 23 8 38 33 58 17 15 55 48 83 74 29 27 60 48 73 48 32 0 71 43 71 79
0 16 -4 32 -9 36 -15 8 -14 341 1 381 11 30 10 37 -8 61 -14 18 -32 29 -52 31
-18 2 -32 7 -32 11 0 4 -25 29 -55 55 -45 38 -59 46 -70 36 -8 -6 -20 -8 -27
-4 -16 9 -10 3 61 -62 30 -27 52 -41 48 -32 -7 21 8 34 19 16 11 -17 12 -48 2
-42 -4 3 -8 -9 -8 -25 0 -30 29 -71 50 -71 6 0 10 -62 10 -165 l0 -166 -26
-22 c-15 -13 -28 -35 -29 -50 -2 -18 -22 -44 -57 -76 -95 -86 -115 -101 -142
-101 -33 0 -76 -41 -76 -73 0 -13 7 -32 15 -43 11 -15 14 -57 15 -198 l0 -180
-41 -38 c-70 -66 -249 -111 -439 -111 -173 0 -315 32 -467 104 -45 21 -86 39
-91 39 -5 0 -85 -27 -177 -60 -93 -33 -170 -59 -171 -57 -2 2 17 75 41 162 25
88 45 167 45 175 0 9 -23 47 -50 85 -139 190 -210 443 -190 676 13 154 60 319
125 435 13 24 22 52 19 61 -4 13 -3 15 4 5 7 -10 14 -6 30 20 11 18 37 54 56
79 23 29 30 46 21 46 -8 0 -13 -5 -12 -11z m-291 -168 c-7 -7 -12 -8 -12 -2 0
14 12 26 19 19 2 -3 -1 -11 -7 -17z m1766 -180 c-2 -7 3 -12 10 -10 8 1 11 -2
7 -8 -5 -8 -11 -8 -21 1 -7 6 -11 15 -8 20 8 13 14 11 12 -3z m42 -38 c0 -5
-2 -10 -4 -10 -3 0 -8 5 -11 10 -3 6 -1 10 4 10 6 0 11 -4 11 -10z"/>
    <path d="M3250 7226 c0 -2 8 -10 18 -17 15 -13 16 -12 3 4 -13 16 -21 21 -21
13z"/>
    <path d="M1494 7208 c-4 -7 -14 -24 -22 -38 l-14 -25 19 24 c17 20 21 21 26 7
4 -9 4 -24 1 -33 -5 -17 -5 -17 6 -1 8 13 8 23 0 38 -6 11 -8 25 -5 30 3 6 4
10 1 10 -3 0 -8 -6 -12 -12z"/>
    <path d="M1440 7120 c-6 -11 -8 -20 -6 -20 3 0 10 9 16 20 6 11 8 20 6 20 -3
0 -10 -9 -16 -20z"/>
    <path d="M3562 7105 c2 -11 8 -24 13 -28 6 -5 -2 -7 -17 -4 -27 4 -45 -14 -32
-34 3 -5 0 -8 -7 -7 -13 3 -37 -77 -26 -88 3 -3 15 0 27 6 20 11 25 9 45 -16
13 -16 21 -33 18 -38 -4 -5 0 -6 6 -1 10 6 11 3 2 -14 -7 -11 -15 -21 -19 -21
-12 0 -62 50 -62 62 0 6 -3 9 -6 6 -10 -11 17 -49 49 -68 69 -43 160 -10 186
65 11 33 11 46 0 70 l-12 30 -7 -30 c-4 -16 -8 -25 -10 -20 -1 6 -5 1 -10 -10
-8 -19 -8 -19 -19 5 -10 23 -11 23 -8 -12 1 -20 0 -36 -3 -36 -3 1 -17 -2 -32
-6 -73 -21 -105 76 -35 104 17 7 18 9 5 9 -12 1 -18 9 -18 25 0 15 7 26 18 29
13 4 12 5 -5 6 -12 0 -27 9 -33 19 -10 15 -10 15 -8 -3z"/>
    <path d="M3010 7090 c0 -5 5 -10 11 -10 5 0 7 5 4 10 -3 6 -8 10 -11 10 -2 0
-4 -4 -4 -10z"/>
    <path d="M3051 7074 c0 -11 3 -14 6 -6 3 7 2 16 -1 19 -3 4 -6 -2 -5 -13z"/>
    <path d="M3014 7060 c2 -16 20 -14 24 2 3 10 2 10 -6 -1 -7 -9 -11 -10 -15 -2
-4 7 -5 8 -3 1z"/>
    <path d="M3698 7050 c12 -11 24 -20 28 -20 4 0 -1 9 -11 20 -10 11 -23 20 -28
20 -6 0 -1 -9 11 -20z"/>
    <path d="M3050 7039 c0 -5 4 -8 9 -4 5 3 17 -2 25 -11 9 -8 16 -12 16 -7 0 13
-22 33 -37 33 -7 0 -13 -5 -13 -11z"/>
    <path d="M2277 7022 c-14 -16 -17 -43 -17 -175 l0 -157 -153 0 c-110 0 -158
-4 -171 -13 -16 -12 -18 -30 -17 -173 1 -136 4 -161 18 -171 12 -9 63 -13 170
-13 l153 0 0 -163 c0 -113 4 -167 12 -175 8 -8 60 -12 168 -12 108 0 160 4
168 12 8 8 12 62 12 175 l0 163 158 0 c141 0 161 2 175 18 14 16 17 43 17 163
0 200 11 189 -191 189 l-159 0 0 158 c0 141 -2 161 -18 175 -16 14 -43 17
-164 17 -128 0 -147 -2 -161 -18z m200 2 c-3 -3 -12 -4 -19 -1 -8 3 -5 6 6 6
11 1 17 -2 13 -5z"/>
    <path d="M2995 7029 c-4 -6 -5 -12 -2 -15 2 -3 7 2 10 11 7 17 1 20 -8 4z"/>
    <path d="M2995 6960 c3 -5 8 -10 11 -10 2 0 4 5 4 10 0 6 -5 10 -11 10 -5 0
-7 -4 -4 -10z"/>
    <path d="M3685 6665 c-5 -2 -22 -6 -37 -9 -15 -4 -39 -19 -53 -34 -60 -64 -54
-148 15 -203 42 -34 41 -26 19 -146 -9 -46 -15 -54 -46 -70 -76 -37 -100 -119
-59 -196 l20 -36 -46 -58 c-26 -33 -51 -56 -59 -54 -41 13 -99 11 -127 -3 -88
-46 -102 -159 -26 -225 28 -25 43 -31 83 -31 96 0 159 80 134 172 -11 41 -11
42 34 97 25 31 48 62 50 68 3 7 18 13 34 13 75 0 139 59 139 128 0 48 -28 100
-62 118 -20 10 -27 20 -24 32 5 16 26 140 26 153 0 4 13 9 28 12 38 8 89 61
96 103 8 42 -8 105 -32 127 -15 14 -86 49 -94 46 -2 0 -7 -2 -13 -4z m54 -109
c30 -36 -15 -94 -63 -82 -30 7 -50 50 -35 77 21 40 67 42 98 5z m-61 -470 c6
-52 -47 -76 -82 -37 -23 26 -17 63 14 78 32 16 64 -3 68 -41z m-268 -316 c24
-24 25 -47 3 -72 -18 -20 -63 -24 -81 -6 -29 29 -1 98 40 98 10 0 27 -9 38
-20z"/>
  </g>
  <g fill="#1a2060">
    <path d="M5100 6915 c0 -124 -2 -225 -5 -225 -3 0 -16 9 -28 21 -67 63 -209
100 -317 81 -213 -38 -350 -205 -350 -428 0 -267 222 -462 482 -425 179 25
305 136 348 307 18 71 20 112 20 486 l0 408 -75 0 -75 0 0 -225z m-155 -290
c141 -69 197 -261 119 -405 -47 -87 -133 -138 -234 -139 -74 -1 -121 13 -172
52 -173 132 -142 406 57 499 53 24 172 21 230 -7z"/>
    <path d="M7380 6900 l0 -120 -80 0 -80 0 0 -70 0 -70 80 0 80 0 0 -247 c1
-267 5 -293 54 -358 43 -56 96 -78 204 -83 l92 -4 0 71 0 71 -57 0 c-64 0
-112 22 -135 62 -9 17 -14 87 -16 256 l-4 232 106 0 106 0 0 70 0 69 -102 3
-103 3 -3 118 -3 117 -69 0 -70 0 0 -120z"/>
    <path d="M5700 6786 c-200 -43 -330 -209 -330 -420 0 -224 137 -387 358 -426
182 -33 370 65 453 236 33 67 34 73 34 189 0 114 -2 123 -32 188 -59 124 -172
211 -307 236 -73 13 -104 13 -176 -3z m191 -151 c93 -33 158 -111 178 -215 35
-178 -95 -340 -273 -340 -71 0 -118 15 -168 53 -115 88 -147 255 -73 382 66
114 208 165 336 120z"/>
    <path d="M6650 6782 c-125 -33 -216 -109 -272 -228 -37 -79 -49 -207 -28 -295
47 -200 210 -325 420 -322 150 2 275 65 343 173 l16 26 -60 33 -60 33 -47 -44
c-66 -62 -123 -82 -216 -76 -156 10 -260 123 -260 283 0 166 117 285 278 285
86 0 143 -24 203 -82 l42 -41 53 30 c29 17 54 37 56 45 5 27 -84 113 -150 146
-107 52 -207 63 -318 34z"/>
    <path d="M8140 6790 c-125 -26 -236 -116 -292 -236 -70 -150 -42 -359 64 -479
134 -154 384 -183 546 -64 23 17 42 35 42 40 0 5 5 9 10 9 6 0 10 -25 10 -55
l0 -55 71 0 70 0 -3 263 c-3 259 -4 263 -30 326 -49 114 -125 187 -241 230
-68 25 -182 34 -247 21z m231 -172 c91 -54 132 -126 138 -241 3 -72 0 -84 -29
-144 -50 -102 -131 -151 -251 -152 -156 -2 -273 121 -273 284 1 117 56 209
157 260 46 24 61 26 133 23 64 -3 90 -9 125 -30z"/>
    <path d="M9062 6786 c-69 -18 -139 -62 -179 -114 -58 -76 -63 -113 -63 -434
l0 -288 70 0 70 0 0 250 c0 271 8 334 47 381 52 61 150 86 240 60 29 -8 31 -7
37 21 11 56 7 116 -9 121 -35 14 -163 16 -213 3z"/>
    <path d="M10043 6785 c-128 -28 -227 -109 -286 -233 -30 -64 -32 -73 -32 -188
0 -119 0 -121 38 -196 64 -131 178 -211 321 -227 137 -16 256 21 347 105 143
135 178 337 89 519 -56 116 -169 200 -299 225 -68 13 -101 12 -178 -5z m194
-148 c188 -70 245 -320 106 -468 -62 -67 -127 -93 -218 -87 -157 11 -260 123
-259 283 1 166 116 286 274 284 36 0 79 -6 97 -12z"/>
    <path d="M10940 6782 c-82 -22 -149 -68 -189 -129 -56 -85 -61 -118 -61 -425
l0 -278 69 0 70 0 3 268 c3 230 6 272 21 307 39 86 106 128 203 126 77 -1 102
-10 153 -57 65 -58 71 -94 71 -391 l0 -254 73 3 72 3 3 240 c3 265 -5 340 -46
423 -70 143 -261 214 -442 164z"/>
    <path d="M9432 6368 l3 -413 73 -3 72 -3 0 416 0 415 -75 0 -75 0 2 -412z"/>
  </g>
</g>
</svg>
